<?xml version="1.0" standalone="no"?><!DOCTYPE svg PUBLIC "-//W3C//DTD SVG 1.1//EN" "http://www.w3.org/Graphics/SVG/1.1/DTD/svg11.dtd"><svg t="1661067333657" class="icon" viewBox="0 0 1024 1024" version="1.1" xmlns="http://www.w3.org/2000/svg" p-id="26863" xmlns:xlink="http://www.w3.org/1999/xlink" width="200" height="200"><defs><style type="text/css">@font-face { font-family: feedback-iconfont; src: url("//at.alicdn.com/t/font_1031158_u69w8yhxdu.woff2?t=1630033759944") format("woff2"), url("//at.alicdn.com/t/font_1031158_u69w8yhxdu.woff?t=1630033759944") format("woff"), url("//at.alicdn.com/t/font_1031158_u69w8yhxdu.ttf?t=1630033759944") format("truetype"); }
</style></defs><path d="M686.658783 560.306087a459.197217 459.197217 0 0 1 284.493913 424.737391 30.586435 30.586435 0 1 1-61.217392 0 398.024348 398.024348 0 0 0-246.605913-368.150261 30.586435 30.586435 0 0 1 23.329392-56.58713zM512 36.151652a275.456 275.456 0 0 1 12.955826 550.689391l-12.955826 0.311653a397.890783 397.890783 0 0 0-397.935304 397.890782 30.586435 30.586435 0 1 1-61.217392 0c0-253.551304 205.601391-459.152696 459.152696-459.152695a214.238609 214.238609 0 1 0-136.45913-49.062957 30.586435 30.586435 0 1 1-39.045566 47.193044A275.456 275.456 0 0 1 512 36.151652z" p-id="26864" fill="#8a8a8a"></path></svg>