<?xml version="1.0" encoding="UTF-8"?>
<svg width="16px" height="16px" viewBox="0 0 16 16" version="1.1" xmlns="http://www.w3.org/2000/svg" xmlns:xlink="http://www.w3.org/1999/xlink">
    <title>编组</title>
    <g id="首页" stroke="none" stroke-width="1" fill="none" fill-rule="evenodd">
        <g id="首页-light-蓝" transform="translate(-1778.000000, -207.000000)" fill="#333333" fill-rule="nonzero">
            <g id="下拉框" transform="translate(1760.000000, 68.000000)">
                <g id="导航栏/二级备份-3" transform="translate(0.000000, 127.481421)">
                    <g id="图标/基础/退出登录" transform="translate(16.000000, 10.000000)">
                        <g id="编组" transform="translate(2.500000, 2.500000)">
                            <path d="M14.8116392,7.09620878 L11.8133469,4.21157865 C11.5734835,3.98072891 11.2136884,3.98072891 10.9738417,4.21157865 C10.7339783,4.4422784 10.7339783,4.78847801 10.9738417,5.01932776 L12.9526396,6.92312564 L7.19591829,6.92312564 C6.83612321,6.92312564 6.59625982,7.15382538 6.59625982,7.500025 C6.59625982,7.84622462 6.83612321,8.07692436 7.19591829,8.07692436 L12.9526396,8.07692436 L10.9739751,9.98072224 C10.7341117,10.211572 10.7341117,10.5577716 10.9739751,10.7884713 C11.0939235,10.9039712 11.2138385,10.9615712 11.393661,10.9615712 C11.5736503,10.9615712 11.6935653,10.9038212 11.813497,10.7884713 L14.8117893,7.84622462 C14.8117893,7.84622462 14.8117893,7.78847468 14.8718302,7.78847468 C15.0516527,7.61537487 15.0516527,7.26932526 14.8117893,7.09622545 L14.8116392,7.09620878 Z" id="路径"></path>
                            <path d="M13.1924863,11.5384538 C12.8326912,11.5384538 12.5928278,11.7693036 12.5928278,12.1153532 L12.5928278,13.2693019 C12.5928278,13.6153515 12.3529644,13.8462013 11.9931694,13.8462013 L1.7989754,13.8462013 C1.43918032,13.8462013 1.19931694,13.6153515 1.19931694,13.2693019 L1.19931694,1.73069808 C1.19931694,1.38464846 1.43918032,1.15379872 1.7989754,1.15379872 L11.9931694,1.15379872 C12.3529644,1.15379872 12.5928278,1.38464846 12.5928278,1.73069808 L12.5928278,2.88464679 C12.5928278,3.23071308 12.8326912,3.46154615 13.1924863,3.46154615 C13.5522814,3.46154615 13.7921448,3.23069641 13.7921448,2.88464679 L13.7921448,1.73069808 C13.7921448,0.749999167 13.0126805,0 11.9931694,0 L1.7989754,0 C0.779631059,0 0,0.749999167 0,1.73069808 L0,13.2693019 C0,14.2500008 0.779647737,15 1.7989754,15 L11.9931694,15 C13.0126638,15 13.7921448,14.2500008 13.7921448,13.2693019 L13.7921448,12.1153532 C13.7921448,11.7692869 13.5522814,11.5384538 13.1924863,11.5384538 Z" id="路径"></path>
                        </g>
                    </g>
                </g>
            </g>
        </g>
    </g>
</svg>