<?xml version="1.0" standalone="no"?><!DOCTYPE svg PUBLIC "-//W3C//DTD SVG 1.1//EN" "http://www.w3.org/Graphics/SVG/1.1/DTD/svg11.dtd"><svg class="icon" width="200px" height="200.00px" viewBox="0 0 1024 1024" version="1.1" xmlns="http://www.w3.org/2000/svg"><path fill="#8a8a8a" d="M945.230769 590.769231v-157.538462h-87.433846c-9.058462-39.384615-24.418462-76.8-45.686154-109.883077l61.833846-61.833846-111.458461-111.458461-61.833846 61.833846c-33.476923-20.873846-70.498462-36.627692-109.883077-45.686154V78.769231h-157.538462v87.433846c-39.384615 9.058462-76.8 24.418462-109.883077 45.686154L261.513846 150.055385 150.055385 261.513846l61.833846 61.833846c-20.873846 33.476923-36.627692 70.498462-45.686154 109.883077H78.769231v157.538462h87.433846c9.058462 39.384615 24.418462 76.8 45.686154 109.883077l-61.833846 61.833846 111.458461 111.458461 61.833846-61.833846c33.476923 20.873846 70.498462 36.627692 109.883077 45.686154V945.230769h157.538462v-87.433846c39.384615-9.058462 76.8-24.418462 109.883077-45.686154l61.833846 61.833846 111.458461-111.458461-61.833846-61.833846c20.873846-33.476923 36.627692-70.498462 45.686154-109.883077H945.230769z m-433.230769 181.169231c-143.36 0-259.938462-116.578462-259.938462-259.938462s116.578462-259.938462 259.938462-259.938462 259.938462 116.578462 259.938462 259.938462-116.578462 259.938462-259.938462 259.938462z"  /><path fill="#8a8a8a" d="M512 512m-78.769231 0a78.769231 78.769231 0 1 0 157.538462 0 78.769231 78.769231 0 1 0-157.538462 0Z"  /></svg>