<?xml version="1.0" encoding="UTF-8"?>
<svg width="16px" height="17px" viewBox="0 0 16 17" version="1.1" xmlns="http://www.w3.org/2000/svg" xmlns:xlink="http://www.w3.org/1999/xlink">
    <title>编组</title>
    <g id="首页" stroke="none" stroke-width="1" fill="none" fill-rule="evenodd">
        <g id="首页-light-蓝" transform="translate(-1778.000000, -167.000000)" fill="#333333" fill-rule="nonzero">
            <g id="下拉框" transform="translate(1760.000000, 68.000000)">
                <g id="导航栏/二级备份-2" transform="translate(0.000000, 87.481421)">
                    <g id="图标/基础/系统定制" transform="translate(16.000000, 10.000000)">
                        <g id="编组" transform="translate(2.000000, 2.000000)">
                            <path d="M12.9230769,0 C14.6224146,0 16,1.37758539 16,3.07692308 L16,12.9230769 C16,14.6224146 14.6224146,16 12.9230769,16 L3.07692308,16 C1.37758539,16 0,14.6224146 0,12.9230769 L0,3.07692308 C0,1.37758539 1.37758539,0 3.07692308,0 L12.9230769,0 Z M14.7692308,6.15384616 L1.23076923,6.15384616 L1.23076923,12.9230769 C1.23076923,13.9006508 1.99272522,14.7088028 2.96861539,14.7661538 L3.07692308,14.7692308 L12.9230769,14.7692308 C13.4127074,14.7692308 13.8822838,14.5747258 14.2285048,14.2285048 C14.5747258,13.8822838 14.7692308,13.4127074 14.7692308,12.9230769 L14.7692308,6.15384616 Z M12.9230769,1.23076923 L3.07692308,1.23076923 C2.05732046,1.23076923 1.23076923,2.05732046 1.23076923,3.07692308 L1.23076923,4.92307692 L14.7692308,4.92307692 L14.7692308,3.07692308 C14.7692308,2.05732046 13.9426795,1.23076923 12.9230769,1.23076923 Z" id="形状"></path>
                            <path d="M3.07692308,7.38461539 C3.29677883,7.38461539 3.49993393,7.50190702 3.6098618,7.69230769 C3.71978968,7.88270835 3.71978968,8.11729165 3.6098618,8.30769231 C3.49993393,8.49809298 3.29677883,8.61538461 3.07692308,8.61538461 C2.73705554,8.61538461 2.46153847,8.33986754 2.46153847,8 C2.46153847,7.66013246 2.73705554,7.38461539 3.07692308,7.38461539 L3.07692308,7.38461539 Z M5.53846153,7.38461539 C5.75831728,7.38461539 5.96147238,7.50190702 6.07140026,7.69230769 C6.18132814,7.88270835 6.18132814,8.11729165 6.07140026,8.30769231 C5.96147238,8.49809298 5.75831728,8.61538461 5.53846153,8.61538461 C5.198594,8.61538461 4.92307692,8.33986754 4.92307692,8 C4.92307692,7.66013246 5.198594,7.38461539 5.53846153,7.38461539 L5.53846153,7.38461539 Z M8,7.38461539 C8.21985575,7.38461539 8.42301085,7.50190702 8.53293873,7.69230769 C8.6428666,7.88270835 8.6428666,8.11729165 8.53293873,8.30769231 C8.42301085,8.49809298 8.21985575,8.61538461 8,8.61538461 C7.66013246,8.61538461 7.38461539,8.33986754 7.38461539,8 C7.38461539,7.66013246 7.66013246,7.38461539 8,7.38461539 L8,7.38461539 Z" id="形状"></path>
                        </g>
                    </g>
                </g>
            </g>
        </g>
    </g>
</svg>