<?xml version="1.0" encoding="UTF-8"?>
<svg width="20px" height="21px" viewBox="0 0 20 21" version="1.1" xmlns="http://www.w3.org/2000/svg" xmlns:xlink="http://www.w3.org/1999/xlink">
    <title>编组</title>
    <g id="首页" stroke="none" stroke-width="1" fill="none" fill-rule="evenodd">
        <g id="首页-light-蓝" transform="translate(-1776.000000, -85.000000)">
            <g id="下拉框" transform="translate(1760.000000, 68.000000)">
                <g id="导航栏/二级" transform="translate(0.000000, 7.481421)">
                    <g id="编组" transform="translate(16.000000, 10.000000)">
                        <rect id="矩形" x="0" y="0" width="20" height="20"></rect>
                        <path d="M9.29854754,16.665446 L5.10008544,16.665446 C4.71390211,16.665446 4.39948737,16.3659851 4.39948737,15.9981691 L4.39948737,13.9995931 C4.39948737,12.1621402 5.96985231,10.6664632 7.89906017,10.6664632 L12.0992311,10.6664632 C12.8340046,10.6664632 13.539729,10.8845489 14.1395093,11.2963076 C14.4539241,11.5127657 14.8896619,11.446038 15.1169291,11.1465772 C15.3441963,10.8487438 15.2724277,10.4321025 14.9597217,10.2156444 C14.1207128,9.63788017 13.1313316,9.33353582 12.0992311,9.33353582 L7.89906017,9.33353582 C5.19748566,9.33190927 3,11.426508 3,13.9995931 L3,15.9997966 C3,17.1032448 3.94153546,18 5.10008544,18 L9.29854754,18 C9.68473087,18 9.99914561,17.7021666 9.99914561,17.332723 C9.99914561,16.9632794 9.68643964,16.665446 9.29854754,16.665446 Z M9.99914561,8.66625979 C11.931771,8.66625979 13.4987184,7.17383786 13.4987184,5.3331299 C13.4987184,3.49242193 11.931771,2 9.99914561,2 C8.0665202,2 6.49957281,3.49242193 6.49957281,5.3331299 C6.49957281,7.17383786 8.0665202,8.66625979 9.99914561,8.66625979 Z M9.99914561,3.33292646 C11.1576956,3.33292646 12.0992311,4.22968162 12.0992311,5.3331299 C12.0992311,6.43657817 11.1576956,7.33333333 9.99914561,7.33333333 C8.84059563,7.33333333 7.89906017,6.43495067 7.89906017,5.3331299 C7.89906017,4.23130912 8.84059563,3.33292646 9.99914561,3.33292646 Z" id="形状" fill="#333333" fill-rule="nonzero"></path>
                        <path d="M11.398633,14.3316041 C11.398633,14.6977927 11.7130477,14.9988811 12.0992311,14.9988811 L16.2994019,14.9988811 C16.6838765,14.9988811 17,14.6994202 17,14.3316041 C17,13.9654155 16.6855853,13.6643271 16.2994019,13.6643271 L12.0992311,13.6643271 C11.7147565,13.6659546 11.398633,13.9654155 11.398633,14.3316041 Z M16.2976932,16.665446 L12.0992311,16.665446 C11.7147565,16.665446 11.398633,16.9649069 11.398633,17.332723 C11.398633,17.6989116 11.7130477,18 12.0992311,18 L16.2994019,18 C16.6838765,18 17,17.7005391 17,17.332723 C16.9982912,16.9649069 16.6838765,16.665446 16.2976932,16.665446 Z" id="形状" fill="#333333" fill-rule="nonzero"></path>
                    </g>
                </g>
            </g>
        </g>
    </g>
</svg>